<?xml version="1.0" encoding="UTF-8"?> <!-- Generator: Adobe Illustrator 25.3.1, SVG Export Plug-In . SVG Version: 6.00 Build 0) --> <svg xmlns="http://www.w3.org/2000/svg" xmlns:xlink="http://www.w3.org/1999/xlink" version="1.1" id="Layer_1" x="0px" y="0px" viewBox="0 0 415 297" style="enable-background:new 0 0 415 297;" xml:space="preserve"> <style type="text/css"> .st0{fill:#010101;} .st1{fill:#EFE207;} .st2{fill:url(#SVGID_1_);} .st3{fill:url(#SVGID_2_);} .st4{fill:url(#SVGID_3_);} .st5{fill:url(#SVGID_4_);} .st6{clip-path:url(#SVGID_6_);} .st7{fill:#FFFFFF;} .st8{fill:#E12829;} .st9{clip-path:url(#SVGID_6_);fill:#EFE207;} .st10{clip-path:url(#SVGID_8_);} .st11{clip-path:url(#SVGID_8_);fill:#EFE207;} </style> <g> <polygon class="st0" points="385.37,63.19 414.31,0 312.85,29.04 312.85,29.04 271.05,40.68 271.05,99.8 262.9,97.42 262.9,42.95 230.18,52.06 230.18,111.18 222.03,108.8 222.03,54.33 189.31,63.44 167.64,69.47 167.64,69.47 125.81,81.12 125.81,81.12 99.09,88.57 99.09,79.97 69.17,105.42 44.06,97.88 44.06,103.89 3.19,115.27 3.19,211.25 3.19,211.58 3.19,219.64 7.39,218.47 23.53,244.92 0.11,296.47 81.27,273.32 105.91,266.46 105.91,266.46 148.12,254.7 148.12,257.12 157.46,259.72 178,265.92 189.95,255.66 189.95,261.12 244.98,245.79 244.98,245.79 271.7,238.35 310.3,227.61 312.58,225.66 312.58,226.97 334.88,220.76 334.88,220.76 364.52,212.5 392.05,204.84 408.48,190.79 408.48,108.17 404.89,107.1 411.59,105.17 "></polygon> <g> <path class="st1" d="M35.77,115.35l12.17-3.39v12.17v29.67v1.17v10.99v1.07v27.96l-12.17,3.39v-32.76l3.74-1.04l-0.21-0.05 l-3.52-1.05l-10.14-3.04v40.77l-12.17,3.39v-47.81v-1.17v-10.99v-1.07v-9.82v-12.17l12.17-3.39L35.77,115.35z M35.77,150.14 v-22.63l-10.14,2.82v16.76L35.77,150.14z"></path> <path class="st1" d="M88.81,113.92v18.14v51.55l-12.17,3.39v-62.64l-5.02,4.28l-0.11,0.03l-5.02-1.59v62.75l-12.17,3.39v-69.69 v-1.17v-10.99v-1.17l16.97,5.09l0.32,0.13l0.21-0.27l16.97-14.44V113.92z"></path> <path class="st1" d="M117.52,92.58l12.17-3.39v12.17v29.67v1.17v10.99v1.07v27.96l-12.17,3.39v-32.76l3.74-1.04l-0.21-0.05 l-3.52-1.05l-10.14-3.04v40.77l-12.17,3.39v-47.81v-1.17v-10.99v-1.07v-9.82V98.79l12.17-3.39L117.52,92.58z M117.52,127.37 v-22.63l-10.14,2.82v16.76L117.52,127.37z"></path> <linearGradient id="SVGID_1_" gradientUnits="userSpaceOnUse" x1="184.0037" y1="158.7884" x2="184.0037" y2="72.3707"> <stop offset="0.1084" style="stop-color:#736328"></stop> <stop offset="0.4008" style="stop-color:#FAC70C"></stop> </linearGradient> <path class="st2" d="M177.92,96.66v-0.11 M190.09,100.11v42.59v12.7l-12.17,3.39l0.11-12.73v-16.97V98.77l-0.11-15.55v-7.46 l12.17-3.39v14.5"></path> <linearGradient id="SVGID_2_" gradientUnits="userSpaceOnUse" x1="216.8194" y1="152.7556" x2="216.8194" y2="66.3376"> <stop offset="0.1084" style="stop-color:#736328"></stop> <stop offset="0.4008" style="stop-color:#FAC70C"></stop> </linearGradient> <path class="st3" d="M234.06,121.49v6.62v2.88v3.84v8.33l-12.17,3.39l-10.14,2.82l-12.17,3.39v-12.17v-26.36v-7.37v-1.81v-9.18 V69.73l12.17-3.39v70.86l10.14-2.82v-0.53v-2.35v-0.32V130v-1.28v-9.71v-1.07L234.06,121.49z"></path> <linearGradient id="SVGID_3_" gradientUnits="userSpaceOnUse" x1="257.6925" y1="141.3729" x2="257.6925" y2="54.9549"> <stop offset="0.1084" style="stop-color:#736328"></stop> <stop offset="0.4008" style="stop-color:#FAC70C"></stop> </linearGradient> <path class="st4" d="M274.93,110.11v6.62v2.88v3.84v8.33l-12.17,3.39l-10.14,2.82l-12.17,3.39v-12.17v-26.36v-7.37v-1.81v-9.18 V58.34l12.17-3.39v70.86l10.14-2.82v-0.53v-2.35v-0.32v-1.17v-1.28v-9.71v-1.07L274.93,110.11z"></path> <linearGradient id="SVGID_4_" gradientUnits="userSpaceOnUse" x1="298.5655" y1="129.9902" x2="298.5655" y2="37.3606"> <stop offset="0.1084" style="stop-color:#736328"></stop> <stop offset="0.4008" style="stop-color:#FAC70C"></stop> </linearGradient> <path class="st5" d="M315.8,49.53v58.7v12.17l-12.17,3.39l-10.14,2.82l-12.17,3.39v-12.17v-58.7V46.96l12.17-3.39l10.14-2.82 l12.17-3.39V49.53z M303.63,111.61v-58.7l-10.14,2.82v58.7L303.63,111.61z"></path> </g> <g> <path class="st1" d="M102,191.56l8.53,2.55v0.49v0.74v9.02v1.23v6.39v18.2v6.48v1.23v8.94v0.82v0.41l-8.53,7.29l-0.08,0.02 l-8.53,2.37l-4.18,1.16l-5.17,1.44v-9.35v-45.1v-9.35l5.17-1.44l4.18-1.16l8.53-2.37L102,191.56z M101.18,232.79v-18.2v-11.81 l-2.87-0.84l-4.92,1.37v45.1l4.92-1.37l2.87-2.44V232.79z"></path> <path class="st1" d="M116.19,214.75 M116.19,204.5v-7.55v-9.35l9.35-2.6l7.79-2.17l9.35-2.6v9.35V200l-9.35,2.6v-10.42l-7.79,2.17 v12.96l9.51,2.85v10.17l-9.51-2.84v21.97l7.79-2.17v-0.41v-1.8v-0.25v-0.9v-0.98v-7.46v-0.82l9.35,2.73v5.08v2.21v2.95v6.4 l-9.35,2.6l-7.79,2.17l-9.35,2.6v-9.35v-25.91"></path> </g> <g> <path class="st1" d="M180.7,168.47v66.81l-5.12,4.42l-5.02-1.59V171.3l-0.01,0v-38.42v-1.07v-10.99v-1.17v-0.53l-5.87-1.78 l5.87-4.94V89.98V77.81l-12.17,3.39l-10.14,2.82l-12.17,3.39v12.17v9.82v1.07v10.99v1.17v47.81l12.17-3.39v-40.77l10.14,3.04 l3.52,1.05l0.21,0.05l-3.74,1.04v45.63l0.01,0v57.36v1.17v7.26v3.73v1.17l1.92,0.53l15.26,4.61l13.45-11.54l3.84-3.21v-1.17v-1.39 v-9.61v-1.17v-59.77L180.7,168.47z M158.39,115.99l-10.14-3.05V96.19l10.14-2.82V115.99z"></path> <path class="st1" d="M200.23,198.36 M200.23,185.02v-9.82v-12.17l12.17-3.39l10.14-2.82l12.17-3.39v12.17v13.56l-12.17,3.39 v-13.56l-10.14,2.82v16.86l12.38,3.7v13.23l-12.38-3.7v28.6l10.14-2.82v-0.53v-2.35v-0.32v-1.17v-1.28v-9.71v-1.07l12.17,3.55 v6.62v2.88v3.84v8.33l-12.17,3.39l-10.14,2.82l-12.17,3.39V233.9v-33.72"></path> <path class="st1" d="M263.41,145.44l12.17-3.39v12.17v22.41l-5.87,4.94l5.87,1.78v0.53v1.17v10.99v1.07v27.96l-12.17,3.39v-32.76 l3.74-1.04l-0.21-0.05l-3.52-1.05l-10.14-3.04v40.77l-12.17,3.39v-47.81v-1.17v-10.99v-1.07v-9.82v-12.17l12.17-3.39 L263.41,145.44z M263.41,180.23v-22.63l-10.14,2.82v16.76L263.41,180.23z"></path> <path class="st1" d="M305.35,133.76l11.1,3.31v0.64v0.96v11.74v1.6v8.32v23.69v8.43v1.6v11.63v1.07v0.53l-11.1,9.49l-0.11,0.03 l-11.1,3.09l-5.44,1.52l-6.72,1.87v-12.17v-58.7v-12.17l6.72-1.87l5.44-1.52l11.1-3.09L305.35,133.76z M304.29,187.42v-23.69 v-15.37l-3.74-1.09l-6.4,1.78v58.7l6.4-1.78l3.74-3.18V187.42z"></path> <path class="st1" d="M345.16,122.68l12.17-3.39v12.17v29.67v1.17v10.99v1.07v27.96l-12.17,3.39v-32.76l3.74-1.04l-0.21-0.05 l-3.52-1.05l-10.14-3.04v40.77l-12.17,3.39v-47.81v-1.17v-10.99v-1.07v-9.82v-12.17l12.17-3.39L345.16,122.68z M345.16,157.47 v-22.63l-10.14,2.82v16.76L345.16,157.47z"></path> <path class="st1" d="M387.1,111l11.1,3.31v0.64v0.96v11.74v1.6v8.32v23.69v8.43v1.6v11.63V184v0.53l-11.1,9.49l-0.11,0.03 l-11.1,3.09l-5.44,1.52l-6.72,1.87v-12.17v-58.7V117.5l6.72-1.87l5.44-1.52l11.1-3.09L387.1,111z M386.03,164.65v-23.69v-15.37 l-3.74-1.09l-6.4,1.78v58.7l6.4-1.78l3.74-3.18V164.65z"></path> </g> <g> <defs> <polygon id="SVGID_5_" points="395.67,14.5 323.12,35.26 323,118.57 395.67,97.55 373.72,62.42 "></polygon> </defs> <clipPath id="SVGID_6_"> <use xlink:href="#SVGID_5_" style="overflow:visible;"></use> </clipPath> <g class="st6"> <g> <polygon class="st7" points="392.85,20.7 316.17,42.57 316.19,115.17 392.87,93.29 "></polygon> <g> <g> <polygon class="st8" points="392.86,62.18 392.86,57 316.18,78.87 316.18,84.05 "></polygon> <polygon class="st1" points="392.86,67.36 392.86,62.18 316.18,84.06 316.19,89.24 "></polygon> <polygon class="st8" points="392.86,72.55 392.86,67.37 316.19,89.24 316.19,94.42 "></polygon> <polygon class="st1" points="392.87,77.74 392.86,72.56 316.19,94.43 316.19,99.61 "></polygon> <polygon class="st8" points="392.87,82.92 392.87,77.74 316.19,99.61 316.19,104.79 "></polygon> <polygon class="st1" points="392.87,88.11 392.87,82.93 316.19,104.8 316.19,109.98 "></polygon> <polygon class="st8" points="392.87,93.29 392.87,88.11 316.19,109.99 316.19,115.17 "></polygon> </g> <g> <g> <polygon class="st8" points="392.85,41.44 392.85,36.26 316.18,58.13 316.18,63.31 "></polygon> </g> <g> <polygon class="st8" points="349.45,70.33 354.41,69.23 354.4,31.68 349.43,33.1 "></polygon> </g> </g> </g> </g> </g> <polygon class="st9" points="420.49,90.5 420.49,85.32 316.55,115.05 316.55,120.23 "></polygon> <polygon class="st9" points="420.14,12.85 420.13,7.67 316.19,37.39 316.19,42.57 "></polygon> </g> <g> <defs> <polygon id="SVGID_7_" points="18.66,277.83 73.69,262.13 73.66,198.94 18.53,214.7 35.16,241.51 "></polygon> </defs> <clipPath id="SVGID_8_"> <use xlink:href="#SVGID_7_" style="overflow:visible;"></use> </clipPath> <g class="st10"> <g> <polygon class="st7" points="20.6,273.27 78.97,256.62 78.96,201.36 20.58,218.01 "></polygon> <g> <g> <polygon class="st8" points="20.59,241.69 20.59,245.64 78.96,228.99 78.96,225.04 "></polygon> <polygon class="st1" points="20.59,237.75 20.59,241.69 78.96,225.04 78.96,221.1 "></polygon> <polygon class="st8" points="20.59,233.8 20.59,237.74 78.96,221.09 78.96,217.15 "></polygon> <polygon class="st1" points="20.59,229.85 20.59,233.79 78.96,217.14 78.96,213.2 "></polygon> <polygon class="st8" points="24.74,224.72 26.82,228.07 78.96,213.2 78.96,209.25 "></polygon> <polygon class="st1" points="20.58,221.95 20.59,225.9 78.96,209.25 78.96,205.3 "></polygon> <polygon class="st8" points="20.58,218.01 22.66,221.36 78.96,205.3 78.96,201.36 "></polygon> </g> <g> <g> <polygon class="st8" points="20.6,257.48 20.6,261.43 78.97,244.77 78.97,240.83 "></polygon> </g> <g> <polygon class="st8" points="53.64,235.49 49.86,236.33 49.87,264.91 53.65,263.83 "></polygon> </g> </g> </g> </g> </g> <polygon class="st11" points="18.53,214.7 20.58,218.01 78.68,201.45 78.68,197.5 "></polygon> <polygon class="st11" points="-0.17,279.25 -0.17,283.19 78.96,260.56 78.96,256.62 "></polygon> </g> </g> </svg> 