<?xml version="1.0" encoding="UTF-8"?> <!-- Generator: Adobe Illustrator 25.3.1, SVG Export Plug-In . SVG Version: 6.00 Build 0) --> <svg xmlns="http://www.w3.org/2000/svg" xmlns:xlink="http://www.w3.org/1999/xlink" version="1.1" id="Layer_1" x="0px" y="0px" viewBox="0 0 200 200" style="enable-background:new 0 0 200 200;" xml:space="preserve"> <style type="text/css"> .st0{fill:#CCCBCB;} </style> <path class="st0" d="M191.32,101.6c-0.31-0.8-0.81-2.07-1.44-3.61c-1.83-4.45-3.22-7.41-4.38-9.87c-0.97-2.06-1.73-3.68-2.48-5.6 c-1.06-2.73-2-6.68-2.69-11.37l-0.07-0.83c-0.05-5.84,0.59-9.25,2.84-15.21c2.13-5.62,5.23-10.78,9.22-15.35 c1.26-1.44,1.27-3.56,0.02-5.02L166.3,4.07c-0.8-0.94-1.96-1.43-3.16-1.35c-1.22,0.07-2.3,0.69-2.97,1.7 c-4.04,6.05-9.41,9.23-15.55,9.23c-0.14,0-0.28,0-0.41,0c-6.39-0.13-12.23-4.09-16.02-10.85c-0.66-1.18-1.86-1.93-3.19-1.98 c-1.34-0.07-2.63,0.57-3.41,1.73c-4.6,6.78-13.33,11.15-22.31,11.15c-8.88,0-17.59-4.37-22.18-11.14c-0.75-1.1-1.98-1.68-3.38-1.67 c-1.36,0.07-2.56,0.82-3.21,2C66.85,9.59,61,13.51,54.44,13.64c-0.11,0-0.22,0-0.33,0c-6.31,0-12.28-3.39-15.64-8.91 c-0.65-1.07-1.78-1.77-3.02-1.87c-1.23-0.11-2.42,0.38-3.23,1.34L6.29,34.74c-1.25,1.47-1.24,3.58,0.03,5.02 c3.98,4.56,7.08,9.72,9.22,15.35c2.26,5.95,2.9,9.35,2.85,15.07l-0.06,0.84c-0.71,4.8-1.65,8.78-2.71,11.5 c-0.75,1.92-1.51,3.54-2.52,5.68c-1.12,2.38-2.51,5.35-4.34,9.79c-0.63,1.54-1.13,2.8-1.45,3.64c-2.52,6.8-4.92,17.43-2.06,29.52 c2.51,10.62,7.91,17.48,11.14,21.58c7.29,9.27,15.32,14.2,21.19,17.8c8.91,5.47,18.68,9.55,29.01,12.11 c6.38,1.84,12.58,4.38,18.43,7.54c5.49,2.97,8.4,5.05,11.83,7.85c0.69,0.56,1.56,0.86,2.45,0.86c0.89,0,1.76-0.31,2.44-0.87 c3.33-2.7,6.34-4.85,11.88-7.85c5.85-3.16,12.04-5.69,18.36-7.52c10.39-2.59,20.17-6.67,29.08-12.14 c5.86-3.59,13.89-8.52,21.19-17.8c3.23-4.1,8.63-10.97,11.14-21.58C196.25,119.06,193.84,108.43,191.32,101.6z M146,116.94 c0,16.05-13.01,29.06-29.06,29.06H82.06C66.01,146,53,132.99,53,116.94V82.06C53,66.01,66.01,53,82.06,53h34.88 C132.99,53,146,66.01,146,82.06V116.94z"></path> <circle class="st0" cx="99.5" cy="99.5" r="14.53"></circle> <path class="st0" d="M116.94,61.72H82.06c-11.22,0-20.34,9.13-20.34,20.34v34.88c0,11.22,9.13,20.34,20.34,20.34h34.88 c11.22,0,20.34-9.13,20.34-20.34V82.06C137.28,70.84,128.16,61.72,116.94,61.72z M99.5,122.75c-12.84,0-23.25-10.41-23.25-23.25 c0-12.84,10.41-23.25,23.25-23.25s23.25,10.41,23.25,23.25C122.75,112.34,112.34,122.75,99.5,122.75z M124.49,77.6 c-1.71,0-3.1-1.39-3.1-3.1s1.39-3.1,3.1-3.1s3.1,1.39,3.1,3.1S126.2,77.6,124.49,77.6z"></path> </svg> 