<svg xmlns="http://www.w3.org/2000/svg" xmlns:xlink="http://www.w3.org/1999/xlink" id="Layer_1" x="0px" y="0px" viewBox="0 0 200 200" style="enable-background:new 0 0 200 200;" xml:space="preserve"> <style type="text/css"> .st0{display:none;fill:#CCCBCB;} .st1{display:none;} .st2{display:inline;} .st3{fill:#CCCBCB;} </style> <path class="st0" d="M191.32,101.6c-0.31-0.8-0.81-2.07-1.44-3.61c-1.83-4.45-3.22-7.41-4.38-9.87c-0.97-2.06-1.73-3.68-2.48-5.6 c-1.06-2.73-2-6.68-2.69-11.37l-0.07-0.83c-0.05-5.84,0.59-9.25,2.84-15.21c2.13-5.62,5.23-10.78,9.22-15.35 c1.26-1.44,1.27-3.56,0.02-5.02L166.3,4.07c-0.8-0.94-1.96-1.43-3.16-1.35c-1.22,0.07-2.3,0.69-2.97,1.7 c-4.04,6.05-9.41,9.23-15.55,9.23c-0.14,0-0.28,0-0.41,0c-6.39-0.13-12.23-4.09-16.02-10.85c-0.66-1.18-1.86-1.93-3.19-1.98 c-1.34-0.07-2.63,0.57-3.41,1.73c-4.6,6.78-13.33,11.15-22.31,11.15c-8.88,0-17.59-4.37-22.18-11.14c-0.75-1.1-1.98-1.68-3.38-1.67 c-1.36,0.07-2.56,0.82-3.21,2C66.85,9.59,61,13.51,54.44,13.64c-0.11,0-0.22,0-0.33,0c-6.31,0-12.28-3.39-15.64-8.91 c-0.65-1.07-1.78-1.77-3.02-1.87c-1.23-0.11-2.42,0.38-3.23,1.34L6.29,34.74c-1.25,1.47-1.24,3.58,0.03,5.02 c3.98,4.56,7.08,9.72,9.22,15.35c2.26,5.95,2.9,9.35,2.85,15.07l-0.06,0.84c-0.71,4.8-1.65,8.78-2.71,11.5 c-0.75,1.92-1.51,3.54-2.52,5.68c-1.12,2.38-2.51,5.35-4.34,9.79c-0.63,1.54-1.13,2.8-1.45,3.64c-2.52,6.8-4.92,17.43-2.06,29.52 c2.51,10.62,7.91,17.48,11.14,21.58c7.29,9.27,15.32,14.2,21.19,17.8c8.91,5.47,18.68,9.55,29.01,12.11 c6.38,1.84,12.58,4.38,18.43,7.54c5.49,2.97,8.4,5.05,11.83,7.85c0.69,0.56,1.56,0.86,2.45,0.86c0.89,0,1.76-0.31,2.44-0.87 c3.33-2.7,6.34-4.85,11.88-7.85c5.85-3.16,12.04-5.69,18.36-7.52c10.39-2.59,20.17-6.67,29.08-12.14 c5.86-3.59,13.89-8.52,21.19-17.8c3.23-4.1,8.63-10.97,11.14-21.58C196.25,119.06,193.84,108.43,191.32,101.6z"></path> <g class="st1"> <g class="st2"> <path d="M116.94,53H82.06C66.01,53,53,66.01,53,82.06v34.88C53,132.99,66.01,146,82.06,146h34.88c16.05,0,29.06-13.01,29.06-29.06 V82.06C146,66.01,132.99,53,116.94,53L116.94,53z M137.28,116.94c0,11.22-9.13,20.34-20.34,20.34H82.06 c-11.22,0-20.34-9.13-20.34-20.34V82.06c0-11.22,9.13-20.34,20.34-20.34h34.88c11.22,0,20.34,9.13,20.34,20.34V116.94z M137.28,116.94"></path> </g> <path class="st2" d="M99.5,76.25c-12.84,0-23.25,10.41-23.25,23.25s10.41,23.25,23.25,23.25s23.25-10.41,23.25-23.25 S112.34,76.25,99.5,76.25L99.5,76.25z M99.5,114.03c-8.01,0-14.53-6.52-14.53-14.53c0-8.02,6.52-14.53,14.53-14.53 c8.01,0,14.53,6.52,14.53,14.53C114.03,107.51,107.51,114.03,99.5,114.03L99.5,114.03z M99.5,114.03"></path> <path class="st2" d="M127.59,74.51c0,1.71-1.39,3.1-3.1,3.1s-3.1-1.39-3.1-3.1c0-1.71,1.39-3.1,3.1-3.1S127.59,72.8,127.59,74.51 L127.59,74.51z M127.59,74.51"></path> </g> <g class="st1"> <path class="st2" d="M156.73,64.12c-4.25,1.86-8.78,3.1-13.5,3.7c4.86-2.9,8.57-7.46,10.31-12.95c-4.53,2.7-9.53,4.61-14.86,5.67 c-4.3-4.58-10.43-7.42-17.12-7.42c-12.97,0-23.42,10.53-23.42,23.44c0,1.86,0.16,3.64,0.54,5.34 c-19.48-0.95-36.72-10.29-48.3-24.51c-2.02,3.51-3.21,7.52-3.21,11.85c0,8.12,4.18,15.31,10.41,19.47 c-3.77-0.07-7.46-1.16-10.59-2.89v0.26c0,11.39,8.12,20.85,18.77,23.03c-1.91,0.52-3.99,0.77-6.14,0.77c-1.5,0-3.02-0.09-4.44-0.4 c3.04,9.28,11.65,16.1,21.9,16.32c-7.97,6.24-18.1,9.99-29.05,9.99c-1.92,0-3.77-0.09-5.61-0.32C52.81,142.18,65.11,146,78.38,146 c43.12,0,66.7-35.72,66.7-66.68c0-1.04-0.04-2.04-0.09-3.03C149.64,72.99,153.55,68.87,156.73,64.12L156.73,64.12z M156.73,64.12"></path> </g> <path class="st0" d="M191.32,101.6c-0.31-0.8-0.81-2.07-1.44-3.61c-1.83-4.45-3.22-7.41-4.38-9.87c-0.97-2.06-1.73-3.68-2.48-5.6 c-1.06-2.73-2-6.68-2.69-11.37l-0.07-0.83c-0.05-5.84,0.59-9.25,2.84-15.21c2.13-5.62,5.23-10.78,9.22-15.35 c1.26-1.44,1.27-3.56,0.02-5.02L166.3,4.07c-0.8-0.94-1.96-1.43-3.16-1.35c-1.22,0.07-2.3,0.69-2.97,1.7 c-4.04,6.05-9.41,9.23-15.55,9.23c-0.14,0-0.28,0-0.41,0c-6.39-0.13-12.23-4.09-16.02-10.85c-0.66-1.18-1.86-1.93-3.19-1.98 c-1.34-0.07-2.63,0.57-3.41,1.73c-4.6,6.78-13.33,11.15-22.31,11.15c-8.88,0-17.59-4.37-22.18-11.14c-0.75-1.1-1.98-1.68-3.38-1.67 c-1.36,0.07-2.56,0.82-3.21,2C66.85,9.59,61,13.51,54.44,13.64c-0.11,0-0.22,0-0.33,0c-6.31,0-12.28-3.39-15.64-8.91 c-0.65-1.07-1.78-1.77-3.02-1.87c-1.23-0.11-2.42,0.38-3.23,1.34L6.29,34.74c-1.25,1.47-1.24,3.58,0.03,5.02 c3.98,4.56,7.08,9.72,9.22,15.35c2.26,5.95,2.9,9.35,2.85,15.07l-0.06,0.84c-0.71,4.8-1.65,8.78-2.71,11.5 c-0.75,1.92-1.51,3.54-2.52,5.68c-1.12,2.38-2.51,5.35-4.34,9.79c-0.63,1.54-1.13,2.8-1.45,3.64c-2.52,6.8-4.92,17.43-2.06,29.52 c2.51,10.62,7.91,17.48,11.14,21.58c7.29,9.27,15.32,14.2,21.19,17.8c8.91,5.47,18.68,9.55,29.01,12.11 c6.38,1.84,12.58,4.38,18.43,7.54c5.49,2.97,8.4,5.05,11.83,7.85c0.69,0.56,1.56,0.86,2.45,0.86c0.89,0,1.76-0.31,2.44-0.87 c3.33-2.7,6.34-4.85,11.88-7.85c5.85-3.16,12.04-5.69,18.36-7.52c10.39-2.59,20.17-6.67,29.08-12.14 c5.86-3.59,13.89-8.52,21.19-17.8c3.23-4.1,8.63-10.97,11.14-21.58C196.25,119.06,193.84,108.43,191.32,101.6z M117.95,99.5h-11.63 V146H88.89V99.5H77.27V84.97h11.63V70.44c0-9.63,7.81-17.44,17.44-17.44h11.63v14.53h-5.81c-3.21,0-5.81,2.6-5.81,5.81v11.62h17.44 L117.95,99.5z"></path> <g> <path class="st3" d="M191.32,101.6c-0.31-0.8-0.81-2.07-1.44-3.61c-1.83-4.45-3.22-7.41-4.38-9.87c-0.97-2.06-1.73-3.68-2.48-5.6 c-1.06-2.73-2-6.68-2.69-11.37l-0.07-0.83c-0.05-5.84,0.59-9.25,2.84-15.21c2.13-5.62,5.23-10.78,9.22-15.35 c1.26-1.44,1.27-3.56,0.02-5.02L166.3,4.07c-0.8-0.94-1.96-1.43-3.16-1.35c-1.22,0.07-2.3,0.69-2.97,1.7 c-4.04,6.05-9.41,9.23-15.55,9.23c-0.14,0-0.28,0-0.41,0c-6.39-0.13-12.23-4.09-16.02-10.85c-0.66-1.18-1.86-1.93-3.19-1.98 c-1.34-0.07-2.63,0.57-3.41,1.73c-4.6,6.78-13.33,11.15-22.31,11.15c-8.88,0-17.59-4.37-22.18-11.14c-0.75-1.1-1.98-1.68-3.38-1.67 c-1.36,0.07-2.56,0.82-3.21,2C66.85,9.59,61,13.51,54.44,13.64c-0.11,0-0.22,0-0.33,0c-6.31,0-12.28-3.39-15.64-8.91 c-0.65-1.07-1.78-1.77-3.02-1.87c-1.23-0.11-2.42,0.38-3.23,1.34L6.29,34.74c-1.25,1.47-1.24,3.58,0.03,5.02 c3.98,4.56,7.08,9.72,9.22,15.35c2.26,5.95,2.9,9.35,2.85,15.07l-0.06,0.84c-0.71,4.8-1.65,8.78-2.71,11.5 c-0.75,1.92-1.51,3.54-2.52,5.68c-1.12,2.38-2.51,5.35-4.34,9.79c-0.63,1.54-1.13,2.8-1.45,3.64c-2.52,6.8-4.92,17.43-2.06,29.52 c2.51,10.62,7.91,17.48,11.14,21.58c7.29,9.27,15.32,14.2,21.19,17.8c8.91,5.47,18.68,9.55,29.01,12.11 c6.38,1.84,12.58,4.38,18.43,7.54c5.49,2.97,8.4,5.05,11.83,7.85c0.69,0.56,1.56,0.86,2.45,0.86c0.89,0,1.76-0.31,2.44-0.87 c3.33-2.7,6.34-4.85,11.88-7.85c5.85-3.16,12.04-5.69,18.36-7.52c10.39-2.59,20.17-6.67,29.08-12.14 c5.86-3.59,13.89-8.52,21.19-17.8c3.23-4.1,8.63-10.97,11.14-21.58C196.25,119.06,193.84,108.43,191.32,101.6z M139.96,90.8h-0.01 c-0.76,0.07-1.53,0.11-2.3,0.12c-8.41,0-16.26-4.24-20.87-11.28v38.41c0,15.68-12.71,28.39-28.39,28.39 c-15.68,0-28.39-12.71-28.39-28.39c0-15.68,12.71-28.39,28.39-28.39c0.59,0,1.17,0.05,1.75,0.09v13.99 c-0.58-0.07-1.16-0.18-1.75-0.18c-8,0-14.49,6.49-14.49,14.49c0,8,6.49,14.49,14.49,14.49c8,0,15.07-6.31,15.07-14.31L103.6,53 h13.38c1.26,12,10.94,21.38,22.97,22.26V90.8z"></path> </g> </svg>